{
    "asset" : {
        "generator" : "Khronos glTF Blender I/O v1.1.46",
        "version" : "2.0"
    },
    "scene" : 0,
    "scenes" : [
        {
            "name" : "Scene",
            "nodes" : [
                0,
                1,
                2
            ]
        }
    ],
    "nodes" : [
        {
            "mesh" : 0,
            "name" : "Plane.017",
            "scale" : [
                22.5,
                21.061599731445312,
                22.5
            ]
        },
        {
            "mesh" : 1,
            "name" : "Plane.027"
        },
        {
            "mesh" : 2,
            "name" : "border.004",
            "scale" : [
                1,
                0.19999998807907104,
                1
            ],
            "translation" : [
                0,
                0.015363216400146484,
                0
            ]
        }
    ],
    "materials" : [
        {
            "doubleSided" : true,
            "emissiveFactor" : [
                0,
                0,
                0
            ],
            "name" : "Material.008",
            "pbrMetallicRoughness" : {
                "baseColorFactor" : [
                    0.7365421652793884,
                    0.7043538093566895,
                    0.7695726156234741,
                    1
                ],
                "metallicFactor" : 0,
                "roughnessFactor" : 0.9545454382896423
            }
        }
    ],
    "meshes" : [
        {
            "name" : "Plane.028",
            "primitives" : [
                {
                    "attributes" : {
                        "POSITION" : 0,
                        "NORMAL" : 1,
                        "TEXCOORD_0" : 2
                    },
                    "indices" : 3
                }
            ]
        },
        {
            "name" : "Plane.041",
            "primitives" : [
                {
                    "attributes" : {
                        "POSITION" : 4,
                        "NORMAL" : 5,
                        "TEXCOORD_0" : 6
                    },
                    "indices" : 7,
                    "material" : 0
                }
            ]
        },
        {
            "name" : "Plane.027",
            "primitives" : [
                {
                    "attributes" : {
                        "POSITION" : 8,
                        "NORMAL" : 9,
                        "TEXCOORD_0" : 10
                    },
                    "indices" : 11,
                    "material" : 0
                }
            ]
        }
    ],
    "accessors" : [
        {
            "bufferView" : 0,
            "componentType" : 5126,
            "count" : 4,
            "max" : [
                1,
                0,
                1
            ],
            "min" : [
                -1,
                0,
                -1
            ],
            "type" : "VEC3"
        },
        {
            "bufferView" : 1,
            "componentType" : 5126,
            "count" : 4,
            "type" : "VEC3"
        },
        {
            "bufferView" : 2,
            "componentType" : 5126,
            "count" : 4,
            "type" : "VEC2"
        },
        {
            "bufferView" : 3,
            "componentType" : 5123,
            "count" : 6,
            "type" : "SCALAR"
        },
        {
            "bufferView" : 4,
            "componentType" : 5126,
            "count" : 768,
            "max" : [
                24,
                6,
                24
            ],
            "min" : [
                -24,
                0,
                -24
            ],
            "type" : "VEC3"
        },
        {
            "bufferView" : 5,
            "componentType" : 5126,
            "count" : 768,
            "type" : "VEC3"
        },
        {
            "bufferView" : 6,
            "componentType" : 5126,
            "count" : 768,
            "type" : "VEC2"
        },
        {
            "bufferView" : 7,
            "componentType" : 5123,
            "count" : 1344,
            "type" : "SCALAR"
        },
        {
            "bufferView" : 8,
            "componentType" : 5126,
            "count" : 64,
            "max" : [
                23.48334312438965,
                2.4846367835998535,
                23.48334312438965
            ],
            "min" : [
                -23.48334312438965,
                -0.01536339521408081,
                -23.48334312438965
            ],
            "type" : "VEC3"
        },
        {
            "bufferView" : 9,
            "componentType" : 5126,
            "count" : 64,
            "type" : "VEC3"
        },
        {
            "bufferView" : 10,
            "componentType" : 5126,
            "count" : 64,
            "type" : "VEC2"
        },
        {
            "bufferView" : 11,
            "componentType" : 5123,
            "count" : 96,
            "type" : "SCALAR"
        }
    ],
    "bufferViews" : [
        {
            "buffer" : 0,
            "byteLength" : 48,
            "byteOffset" : 0
        },
        {
            "buffer" : 0,
            "byteLength" : 48,
            "byteOffset" : 48
        },
        {
            "buffer" : 0,
            "byteLength" : 32,
            "byteOffset" : 96
        },
        {
            "buffer" : 0,
            "byteLength" : 12,
            "byteOffset" : 128
        },
        {
            "buffer" : 0,
            "byteLength" : 9216,
            "byteOffset" : 140
        },
        {
            "buffer" : 0,
            "byteLength" : 9216,
            "byteOffset" : 9356
        },
        {
            "buffer" : 0,
            "byteLength" : 6144,
            "byteOffset" : 18572
        },
        {
            "buffer" : 0,
            "byteLength" : 2688,
            "byteOffset" : 24716
        },
        {
            "buffer" : 0,
            "byteLength" : 768,
            "byteOffset" : 27404
        },
        {
            "buffer" : 0,
            "byteLength" : 768,
            "byteOffset" : 28172
        },
        {
            "buffer" : 0,
            "byteLength" : 512,
            "byteOffset" : 28940
        },
        {
            "buffer" : 0,
            "byteLength" : 192,
            "byteOffset" : 29452
        }
    ],
    "buffers" : [
        {
            "byteLength" : 29644,
            "uri" : "data:application/octet-stream;base64,"
        }
    ]
}
