{
    "asset" : {
        "generator" : "Khronos glTF Blender I/O v1.1.46",
        "version" : "2.0"
    },
    "scene" : 0,
    "scenes" : [
        {
            "name" : "Scene",
            "nodes" : [
                0,
                1,
                2
            ]
        }
    ],
    "nodes" : [
        {
            "mesh" : 0,
            "name" : "static_collider",
            "scale" : [
                2.5,
                1,
                2.5
            ],
            "translation" : [
                0,
                1,
                0
            ]
        },
        {
            "mesh" : 1,
            "name" : "Plane.006",
            "scale" : [
                2.3206727504730225,
                0.6568289995193481,
                2.308326244354248
            ]
        },
        {
            "mesh" : 2,
            "name" : "lot.001",
            "scale" : [
                2.186850070953369,
                2.186850070953369,
                2.186850070953369
            ]
        }
    ],
    "materials" : [
        {
            "doubleSided" : true,
            "emissiveFactor" : [
                0,
                0,
                0
            ],
            "name" : "base",
            "pbrMetallicRoughness" : {
                "baseColorFactor" : [
                    0.35834363102912903,
                    0.2739560306072235,
                    0.16775907576084137,
                    1
                ],
                "metallicFactor" : 0,
                "roughnessFactor" : 0.9181817770004272
            }
        },
        {
            "doubleSided" : true,
            "emissiveFactor" : [
                0,
                0,
                0
            ],
            "name" : "white",
            "pbrMetallicRoughness" : {
                "baseColorFactor" : [
                    0.800000011920929,
                    0.800000011920929,
                    0.800000011920929,
                    1
                ],
                "metallicFactor" : 0,
                "roughnessFactor" : 0.9772727489471436
            }
        },
        {
            "doubleSided" : true,
            "emissiveFactor" : [
                0,
                0,
                0
            ],
            "name" : "paine",
            "pbrMetallicRoughness" : {
                "baseColorFactor" : [
                    0.6654605865478516,
                    0.7005620002746582,
                    0.3013564944267273,
                    1
                ],
                "metallicFactor" : 0,
                "roughnessFactor" : 0.5
            }
        },
        {
            "doubleSided" : true,
            "emissiveFactor" : [
                0,
                0,
                0
            ],
            "name" : "Material.011",
            "pbrMetallicRoughness" : {
                "baseColorFactor" : [
                    0.5232548713684082,
                    0.3606204390525818,
                    0.1708739995956421,
                    1
                ],
                "metallicFactor" : 0,
                "roughnessFactor" : 0.968181848526001
            }
        }
    ],
    "meshes" : [
        {
            "name" : "Cube",
            "primitives" : [
                {
                    "attributes" : {
                        "POSITION" : 0,
                        "NORMAL" : 1,
                        "TEXCOORD_0" : 2
                    },
                    "indices" : 3
                }
            ]
        },
        {
            "name" : "Plane",
            "primitives" : [
                {
                    "attributes" : {
                        "POSITION" : 4,
                        "NORMAL" : 5,
                        "TEXCOORD_0" : 6
                    },
                    "indices" : 7,
                    "material" : 0
                },
                {
                    "attributes" : {
                        "POSITION" : 8,
                        "NORMAL" : 9,
                        "TEXCOORD_0" : 10
                    },
                    "indices" : 11,
                    "material" : 1
                }
            ]
        },
        {
            "name" : "Cylinder.005",
            "primitives" : [
                {
                    "attributes" : {
                        "POSITION" : 12,
                        "NORMAL" : 13,
                        "TEXCOORD_0" : 14
                    },
                    "indices" : 15,
                    "material" : 2
                },
                {
                    "attributes" : {
                        "POSITION" : 16,
                        "NORMAL" : 17,
                        "TEXCOORD_0" : 18
                    },
                    "indices" : 19,
                    "material" : 3
                }
            ]
        }
    ],
    "accessors" : [
        {
            "bufferView" : 0,
            "componentType" : 5126,
            "count" : 40,
            "max" : [
                1,
                7.059325218200684,
                1
            ],
            "min" : [
                -1,
                -1,
                -1
            ],
            "type" : "VEC3"
        },
        {
            "bufferView" : 1,
            "componentType" : 5126,
            "count" : 40,
            "type" : "VEC3"
        },
        {
            "bufferView" : 2,
            "componentType" : 5126,
            "count" : 40,
            "type" : "VEC2"
        },
        {
            "bufferView" : 3,
            "componentType" : 5123,
            "count" : 66,
            "type" : "SCALAR"
        },
        {
            "bufferView" : 4,
            "componentType" : 5126,
            "count" : 110,
            "max" : [
                1.0772738456726074,
                0.7329694032669067,
                1.0830358266830444
            ],
            "min" : [
                -1.0772738456726074,
                5.960464477539063e-08,
                -1.0830358266830444
            ],
            "type" : "VEC3"
        },
        {
            "bufferView" : 5,
            "componentType" : 5126,
            "count" : 110,
            "type" : "VEC3"
        },
        {
            "bufferView" : 6,
            "componentType" : 5126,
            "count" : 110,
            "type" : "VEC2"
        },
        {
            "bufferView" : 7,
            "componentType" : 5123,
            "count" : 144,
            "type" : "SCALAR"
        },
        {
            "bufferView" : 8,
            "componentType" : 5126,
            "count" : 80,
            "max" : [
                1.0027003288269043,
                1.1129779815673828,
                0.9114669561386108
            ],
            "min" : [
                -1.0161962509155273,
                0.4406573474407196,
                -0.9739931225776672
            ],
            "type" : "VEC3"
        },
        {
            "bufferView" : 9,
            "componentType" : 5126,
            "count" : 80,
            "type" : "VEC3"
        },
        {
            "bufferView" : 10,
            "componentType" : 5126,
            "count" : 80,
            "type" : "VEC2"
        },
        {
            "bufferView" : 11,
            "componentType" : 5123,
            "count" : 96,
            "type" : "SCALAR"
        },
        {
            "bufferView" : 12,
            "componentType" : 5126,
            "count" : 408,
            "max" : [
                1.5200281143188477,
                3.883429527282715,
                1.5152209997177124
            ],
            "min" : [
                -1.5097169876098633,
                0.22020475566387177,
                -1.5145237445831299
            ],
            "type" : "VEC3"
        },
        {
            "bufferView" : 13,
            "componentType" : 5126,
            "count" : 408,
            "type" : "VEC3"
        },
        {
            "bufferView" : 14,
            "componentType" : 5126,
            "count" : 408,
            "type" : "VEC2"
        },
        {
            "bufferView" : 15,
            "componentType" : 5123,
            "count" : 600,
            "type" : "SCALAR"
        },
        {
            "bufferView" : 16,
            "componentType" : 5126,
            "count" : 32,
            "max" : [
                0.18940234184265137,
                0.6909906268119812,
                0.23054717481136322
            ],
            "min" : [
                -0.3492308557033539,
                0.0740361213684082,
                -0.2455972135066986
            ],
            "type" : "VEC3"
        },
        {
            "bufferView" : 17,
            "componentType" : 5126,
            "count" : 32,
            "type" : "VEC3"
        },
        {
            "bufferView" : 18,
            "componentType" : 5126,
            "count" : 32,
            "type" : "VEC2"
        },
        {
            "bufferView" : 19,
            "componentType" : 5123,
            "count" : 48,
            "type" : "SCALAR"
        }
    ],
    "bufferViews" : [
        {
            "buffer" : 0,
            "byteLength" : 480,
            "byteOffset" : 0
        },
        {
            "buffer" : 0,
            "byteLength" : 480,
            "byteOffset" : 480
        },
        {
            "buffer" : 0,
            "byteLength" : 320,
            "byteOffset" : 960
        },
        {
            "buffer" : 0,
            "byteLength" : 132,
            "byteOffset" : 1280
        },
        {
            "buffer" : 0,
            "byteLength" : 1320,
            "byteOffset" : 1412
        },
        {
            "buffer" : 0,
            "byteLength" : 1320,
            "byteOffset" : 2732
        },
        {
            "buffer" : 0,
            "byteLength" : 880,
            "byteOffset" : 4052
        },
        {
            "buffer" : 0,
            "byteLength" : 288,
            "byteOffset" : 4932
        },
        {
            "buffer" : 0,
            "byteLength" : 960,
            "byteOffset" : 5220
        },
        {
            "buffer" : 0,
            "byteLength" : 960,
            "byteOffset" : 6180
        },
        {
            "buffer" : 0,
            "byteLength" : 640,
            "byteOffset" : 7140
        },
        {
            "buffer" : 0,
            "byteLength" : 192,
            "byteOffset" : 7780
        },
        {
            "buffer" : 0,
            "byteLength" : 4896,
            "byteOffset" : 7972
        },
        {
            "buffer" : 0,
            "byteLength" : 4896,
            "byteOffset" : 12868
        },
        {
            "buffer" : 0,
            "byteLength" : 3264,
            "byteOffset" : 17764
        },
        {
            "buffer" : 0,
            "byteLength" : 1200,
            "byteOffset" : 21028
        },
        {
            "buffer" : 0,
            "byteLength" : 384,
            "byteOffset" : 22228
        },
        {
            "buffer" : 0,
            "byteLength" : 384,
            "byteOffset" : 22612
        },
        {
            "buffer" : 0,
            "byteLength" : 256,
            "byteOffset" : 22996
        },
        {
            "buffer" : 0,
            "byteLength" : 96,
            "byteOffset" : 23252
        }
    ],
    "buffers" : [
        {
            "byteLength" : 23348,
            "uri" : "data:application/octet-stream;base64,"
        }
    ]
}
