{
    "asset" : {
        "generator" : "Khronos glTF Blender I/O v1.1.46",
        "version" : "2.0"
    },
    "scene" : 0,
    "scenes" : [
        {
            "name" : "Scene",
            "nodes" : [
                0,
                1,
                2,
                3,
                4,
                5
            ]
        }
    ],
    "nodes" : [
        {
            "mesh" : 0,
            "name" : "Cube",
            "scale" : [
                1.836734652519226,
                0.9512990117073059,
                1.7999999523162842
            ]
        },
        {
            "mesh" : 1,
            "name" : "Plane",
            "scale" : [
                2.5,
                1,
                2.5
            ]
        },
        {
            "mesh" : 2,
            "name" : "Plane.001",
            "scale" : [
                2.5,
                1,
                2.5
            ],
            "translation" : [
                0,
                1.5452022552490234,
                0
            ]
        },
        {
            "mesh" : 3,
            "name" : "Plane.002",
            "scale" : [
                2.5,
                1,
                2.5
            ],
            "translation" : [
                0,
                1.0576509237289429,
                0
            ]
        },
        {
            "mesh" : 4,
            "name" : "Plane.003",
            "scale" : [
                2.5,
                1,
                2.5
            ],
            "translation" : [
                0,
                2.06453013420105,
                0
            ]
        },
        {
            "mesh" : 5,
            "name" : "pillar_collider",
            "scale" : [
                2.5,
                1,
                2.5
            ]
        }
    ],
    "materials" : [
        {
            "doubleSided" : true,
            "emissiveFactor" : [
                0,
                0,
                0
            ],
            "name" : "Material.001",
            "pbrMetallicRoughness" : {
                "baseColorFactor" : [
                    0.6256628036499023,
                    0.8000000715255737,
                    0.30126047134399414,
                    1
                ],
                "metallicFactor" : 0,
                "roughnessFactor" : 0.836363673210144
            }
        },
        {
            "doubleSided" : true,
            "emissiveFactor" : [
                0,
                0,
                0
            ],
            "name" : "Material.002",
            "pbrMetallicRoughness" : {
                "baseColorFactor" : [
                    0.8000000715255737,
                    0.713538646697998,
                    0.048065852373838425,
                    1
                ],
                "metallicFactor" : 0,
                "roughnessFactor" : 0.8030303120613098
            }
        },
        {
            "doubleSided" : true,
            "emissiveFactor" : [
                0,
                0,
                0
            ],
            "name" : "Material.003",
            "pbrMetallicRoughness" : {
                "baseColorFactor" : [
                    0.07467696815729141,
                    0.07467696815729141,
                    0.07467696815729141,
                    1
                ],
                "metallicFactor" : 0,
                "roughnessFactor" : 0.5
            }
        }
    ],
    "meshes" : [
        {
            "name" : "Cube.001",
            "primitives" : [
                {
                    "attributes" : {
                        "POSITION" : 0,
                        "NORMAL" : 1,
                        "TEXCOORD_0" : 2
                    },
                    "indices" : 3,
                    "material" : 0
                }
            ]
        },
        {
            "name" : "Plane.001",
            "primitives" : [
                {
                    "attributes" : {
                        "POSITION" : 4,
                        "NORMAL" : 5,
                        "TEXCOORD_0" : 6
                    },
                    "indices" : 7,
                    "material" : 1
                },
                {
                    "attributes" : {
                        "POSITION" : 8,
                        "NORMAL" : 9,
                        "TEXCOORD_0" : 10
                    },
                    "indices" : 11,
                    "material" : 2
                }
            ]
        },
        {
            "name" : "Plane.002",
            "primitives" : [
                {
                    "attributes" : {
                        "POSITION" : 12,
                        "NORMAL" : 13,
                        "TEXCOORD_0" : 14
                    },
                    "indices" : 15,
                    "material" : 1
                }
            ]
        },
        {
            "name" : "Plane.003",
            "primitives" : [
                {
                    "attributes" : {
                        "POSITION" : 16,
                        "NORMAL" : 17,
                        "TEXCOORD_0" : 18
                    },
                    "indices" : 15,
                    "material" : 1
                }
            ]
        },
        {
            "name" : "Plane.004",
            "primitives" : [
                {
                    "attributes" : {
                        "POSITION" : 19,
                        "NORMAL" : 20,
                        "TEXCOORD_0" : 21
                    },
                    "indices" : 15,
                    "material" : 1
                }
            ]
        },
        {
            "name" : "Plane.005",
            "primitives" : [
                {
                    "attributes" : {
                        "POSITION" : 22,
                        "NORMAL" : 23,
                        "TEXCOORD_0" : 24
                    },
                    "indices" : 25
                }
            ]
        }
    ],
    "accessors" : [
        {
            "bufferView" : 0,
            "componentType" : 5126,
            "count" : 376,
            "max" : [
                1.225000023841858,
                6.307168006896973,
                1.25
            ],
            "min" : [
                -1.225000023841858,
                0,
                -1.25
            ],
            "type" : "VEC3"
        },
        {
            "bufferView" : 1,
            "componentType" : 5126,
            "count" : 376,
            "type" : "VEC3"
        },
        {
            "bufferView" : 2,
            "componentType" : 5126,
            "count" : 376,
            "type" : "VEC2"
        },
        {
            "bufferView" : 3,
            "componentType" : 5123,
            "count" : 636,
            "type" : "SCALAR"
        },
        {
            "bufferView" : 4,
            "componentType" : 5126,
            "count" : 4,
            "max" : [
                0.8116136789321899,
                0.20840466022491455,
                0.8116136789321899
            ],
            "min" : [
                -0.8116136789321899,
                0.20840466022491455,
                -0.8116136789321899
            ],
            "type" : "VEC3"
        },
        {
            "bufferView" : 5,
            "componentType" : 5126,
            "count" : 4,
            "type" : "VEC3"
        },
        {
            "bufferView" : 6,
            "componentType" : 5126,
            "count" : 4,
            "type" : "VEC2"
        },
        {
            "bufferView" : 7,
            "componentType" : 5123,
            "count" : 6,
            "type" : "SCALAR"
        },
        {
            "bufferView" : 8,
            "componentType" : 5126,
            "count" : 16,
            "max" : [
                1,
                0.20840466022491455,
                1
            ],
            "min" : [
                -1,
                0,
                -1
            ],
            "type" : "VEC3"
        },
        {
            "bufferView" : 9,
            "componentType" : 5126,
            "count" : 16,
            "type" : "VEC3"
        },
        {
            "bufferView" : 10,
            "componentType" : 5126,
            "count" : 16,
            "type" : "VEC2"
        },
        {
            "bufferView" : 11,
            "componentType" : 5123,
            "count" : 24,
            "type" : "SCALAR"
        },
        {
            "bufferView" : 12,
            "componentType" : 5126,
            "count" : 64,
            "max" : [
                1,
                0.09122513979673386,
                1
            ],
            "min" : [
                -1,
                0,
                -1
            ],
            "type" : "VEC3"
        },
        {
            "bufferView" : 13,
            "componentType" : 5126,
            "count" : 64,
            "type" : "VEC3"
        },
        {
            "bufferView" : 14,
            "componentType" : 5126,
            "count" : 64,
            "type" : "VEC2"
        },
        {
            "bufferView" : 15,
            "componentType" : 5123,
            "count" : 96,
            "type" : "SCALAR"
        },
        {
            "bufferView" : 16,
            "componentType" : 5126,
            "count" : 64,
            "max" : [
                1,
                0.09122513979673386,
                1
            ],
            "min" : [
                -1,
                0,
                -1
            ],
            "type" : "VEC3"
        },
        {
            "bufferView" : 17,
            "componentType" : 5126,
            "count" : 64,
            "type" : "VEC3"
        },
        {
            "bufferView" : 18,
            "componentType" : 5126,
            "count" : 64,
            "type" : "VEC2"
        },
        {
            "bufferView" : 19,
            "componentType" : 5126,
            "count" : 64,
            "max" : [
                1,
                0.09122513979673386,
                1
            ],
            "min" : [
                -1,
                0,
                -1
            ],
            "type" : "VEC3"
        },
        {
            "bufferView" : 20,
            "componentType" : 5126,
            "count" : 64,
            "type" : "VEC3"
        },
        {
            "bufferView" : 21,
            "componentType" : 5126,
            "count" : 64,
            "type" : "VEC2"
        },
        {
            "bufferView" : 22,
            "componentType" : 5126,
            "count" : 24,
            "max" : [
                1,
                6.206688404083252,
                1
            ],
            "min" : [
                -1,
                0,
                -1
            ],
            "type" : "VEC3"
        },
        {
            "bufferView" : 23,
            "componentType" : 5126,
            "count" : 24,
            "type" : "VEC3"
        },
        {
            "bufferView" : 24,
            "componentType" : 5126,
            "count" : 24,
            "type" : "VEC2"
        },
        {
            "bufferView" : 25,
            "componentType" : 5123,
            "count" : 36,
            "type" : "SCALAR"
        }
    ],
    "bufferViews" : [
        {
            "buffer" : 0,
            "byteLength" : 4512,
            "byteOffset" : 0
        },
        {
            "buffer" : 0,
            "byteLength" : 4512,
            "byteOffset" : 4512
        },
        {
            "buffer" : 0,
            "byteLength" : 3008,
            "byteOffset" : 9024
        },
        {
            "buffer" : 0,
            "byteLength" : 1272,
            "byteOffset" : 12032
        },
        {
            "buffer" : 0,
            "byteLength" : 48,
            "byteOffset" : 13304
        },
        {
            "buffer" : 0,
            "byteLength" : 48,
            "byteOffset" : 13352
        },
        {
            "buffer" : 0,
            "byteLength" : 32,
            "byteOffset" : 13400
        },
        {
            "buffer" : 0,
            "byteLength" : 12,
            "byteOffset" : 13432
        },
        {
            "buffer" : 0,
            "byteLength" : 192,
            "byteOffset" : 13444
        },
        {
            "buffer" : 0,
            "byteLength" : 192,
            "byteOffset" : 13636
        },
        {
            "buffer" : 0,
            "byteLength" : 128,
            "byteOffset" : 13828
        },
        {
            "buffer" : 0,
            "byteLength" : 48,
            "byteOffset" : 13956
        },
        {
            "buffer" : 0,
            "byteLength" : 768,
            "byteOffset" : 14004
        },
        {
            "buffer" : 0,
            "byteLength" : 768,
            "byteOffset" : 14772
        },
        {
            "buffer" : 0,
            "byteLength" : 512,
            "byteOffset" : 15540
        },
        {
            "buffer" : 0,
            "byteLength" : 192,
            "byteOffset" : 16052
        },
        {
            "buffer" : 0,
            "byteLength" : 768,
            "byteOffset" : 16244
        },
        {
            "buffer" : 0,
            "byteLength" : 768,
            "byteOffset" : 17012
        },
        {
            "buffer" : 0,
            "byteLength" : 512,
            "byteOffset" : 17780
        },
        {
            "buffer" : 0,
            "byteLength" : 768,
            "byteOffset" : 18292
        },
        {
            "buffer" : 0,
            "byteLength" : 768,
            "byteOffset" : 19060
        },
        {
            "buffer" : 0,
            "byteLength" : 512,
            "byteOffset" : 19828
        },
        {
            "buffer" : 0,
            "byteLength" : 288,
            "byteOffset" : 20340
        },
        {
            "buffer" : 0,
            "byteLength" : 288,
            "byteOffset" : 20628
        },
        {
            "buffer" : 0,
            "byteLength" : 192,
            "byteOffset" : 20916
        },
        {
            "buffer" : 0,
            "byteLength" : 72,
            "byteOffset" : 21108
        }
    ],
    "buffers" : [
        {
            "byteLength" : 21180,
            "uri" : "data:application/octet-stream;base64,"
        }
    ]
}
