{
    "asset" : {
        "generator" : "Khronos glTF Blender I/O v1.1.46",
        "version" : "2.0"
    },
    "scene" : 0,
    "scenes" : [
        {
            "name" : "Scene",
            "nodes" : [
                2,
                3
            ]
        }
    ],
    "nodes" : [
        {
            "mesh" : 0,
            "name" : "Plane.014",
            "rotation" : [
                0.004246107302606106,
                -0.0035545669961720705,
                0.0006573389400728047,
                0.9999844431877136
            ],
            "translation" : [
                0.04630137234926224,
                0.19649267196655273,
                0.05534697696566582
            ]
        },
        {
            "mesh" : 1,
            "name" : "Plane.015",
            "translation" : [
                0,
                0.1277785301208496,
                0
            ]
        },
        {
            "children" : [
                0,
                1
            ],
            "mesh" : 2,
            "name" : "border.002"
        },
        {
            "mesh" : 3,
            "name" : "bottom_base_collider",
            "translation" : [
                0,
                0.43075883388519287,
                0
            ]
        }
    ],
    "materials" : [
        {
            "doubleSided" : true,
            "emissiveFactor" : [
                0.24620138108730316,
                0.15292617678642273,
                0.40724021196365356
            ],
            "name" : "blue_shine2",
            "pbrMetallicRoughness" : {
                "baseColorFactor" : [
                    0.2463572919368744,
                    0.1517346352338791,
                    0.40974313020706177,
                    1
                ],
                "metallicFactor" : 0,
                "roughnessFactor" : 0.5
            }
        },
        {
            "doubleSided" : true,
            "emissiveFactor" : [
                0,
                0,
                0
            ],
            "name" : "base.001",
            "pbrMetallicRoughness" : {
                "baseColorFactor" : [
                    0.07925711572170258,
                    0.07476065307855606,
                    0.062170952558517456,
                    1
                ],
                "metallicFactor" : 0,
                "roughnessFactor" : 0.9181817770004272
            }
        }
    ],
    "meshes" : [
        {
            "name" : "Plane.033",
            "primitives" : [
                {
                    "attributes" : {
                        "POSITION" : 0,
                        "NORMAL" : 1,
                        "TEXCOORD_0" : 2
                    },
                    "indices" : 3,
                    "material" : 0
                }
            ]
        },
        {
            "name" : "Plane.032",
            "primitives" : [
                {
                    "attributes" : {
                        "POSITION" : 4,
                        "NORMAL" : 5,
                        "TEXCOORD_0" : 6
                    },
                    "indices" : 7,
                    "material" : 1
                }
            ]
        },
        {
            "name" : "Plane.034",
            "primitives" : [
                {
                    "attributes" : {
                        "POSITION" : 8,
                        "NORMAL" : 9,
                        "TEXCOORD_0" : 10
                    },
                    "indices" : 11,
                    "material" : 1
                }
            ]
        },
        {
            "name" : "Plane.048",
            "primitives" : [
                {
                    "attributes" : {
                        "POSITION" : 12,
                        "NORMAL" : 13,
                        "TEXCOORD_0" : 14
                    },
                    "indices" : 15
                }
            ]
        }
    ],
    "accessors" : [
        {
            "bufferView" : 0,
            "componentType" : 5126,
            "count" : 4,
            "max" : [
                22.5,
                0,
                22.5
            ],
            "min" : [
                -22.5,
                0,
                -22.5
            ],
            "type" : "VEC3"
        },
        {
            "bufferView" : 1,
            "componentType" : 5126,
            "count" : 4,
            "type" : "VEC3"
        },
        {
            "bufferView" : 2,
            "componentType" : 5126,
            "count" : 4,
            "type" : "VEC2"
        },
        {
            "bufferView" : 3,
            "componentType" : 5123,
            "count" : 6,
            "type" : "SCALAR"
        },
        {
            "bufferView" : 4,
            "componentType" : 5126,
            "count" : 7824,
            "max" : [
                22.53488540649414,
                0.7159948348999023,
                22.57537841796875
            ],
            "min" : [
                -22.593164443969727,
                -0.5586721897125244,
                -22.6029052734375
            ],
            "type" : "VEC3"
        },
        {
            "bufferView" : 5,
            "componentType" : 5126,
            "count" : 7824,
            "type" : "VEC3"
        },
        {
            "bufferView" : 6,
            "componentType" : 5126,
            "count" : 7824,
            "type" : "VEC2"
        },
        {
            "bufferView" : 7,
            "componentType" : 5123,
            "count" : 8262,
            "type" : "SCALAR"
        },
        {
            "bufferView" : 8,
            "componentType" : 5126,
            "count" : 64,
            "max" : [
                23.48334312438965,
                5.000000476837158,
                23.48334312438965
            ],
            "min" : [
                -23.48334312438965,
                2.5798692604439566e-07,
                -23.48334312438965
            ],
            "type" : "VEC3"
        },
        {
            "bufferView" : 9,
            "componentType" : 5126,
            "count" : 64,
            "type" : "VEC3"
        },
        {
            "bufferView" : 10,
            "componentType" : 5126,
            "count" : 64,
            "type" : "VEC2"
        },
        {
            "bufferView" : 11,
            "componentType" : 5123,
            "count" : 96,
            "type" : "SCALAR"
        },
        {
            "bufferView" : 12,
            "componentType" : 5126,
            "count" : 20,
            "max" : [
                24,
                0,
                24
            ],
            "min" : [
                -24,
                -0.4307585656642914,
                -24
            ],
            "type" : "VEC3"
        },
        {
            "bufferView" : 13,
            "componentType" : 5126,
            "count" : 20,
            "type" : "VEC3"
        },
        {
            "bufferView" : 14,
            "componentType" : 5126,
            "count" : 20,
            "type" : "VEC2"
        },
        {
            "bufferView" : 15,
            "componentType" : 5123,
            "count" : 30,
            "type" : "SCALAR"
        }
    ],
    "bufferViews" : [
        {
            "buffer" : 0,
            "byteLength" : 48,
            "byteOffset" : 0
        },
        {
            "buffer" : 0,
            "byteLength" : 48,
            "byteOffset" : 48
        },
        {
            "buffer" : 0,
            "byteLength" : 32,
            "byteOffset" : 96
        },
        {
            "buffer" : 0,
            "byteLength" : 12,
            "byteOffset" : 128
        },
        {
            "buffer" : 0,
            "byteLength" : 93888,
            "byteOffset" : 140
        },
        {
            "buffer" : 0,
            "byteLength" : 93888,
            "byteOffset" : 94028
        },
        {
            "buffer" : 0,
            "byteLength" : 62592,
            "byteOffset" : 187916
        },
        {
            "buffer" : 0,
            "byteLength" : 16524,
            "byteOffset" : 250508
        },
        {
            "buffer" : 0,
            "byteLength" : 768,
            "byteOffset" : 267032
        },
        {
            "buffer" : 0,
            "byteLength" : 768,
            "byteOffset" : 267800
        },
        {
            "buffer" : 0,
            "byteLength" : 512,
            "byteOffset" : 268568
        },
        {
            "buffer" : 0,
            "byteLength" : 192,
            "byteOffset" : 269080
        },
        {
            "buffer" : 0,
            "byteLength" : 240,
            "byteOffset" : 269272
        },
        {
            "buffer" : 0,
            "byteLength" : 240,
            "byteOffset" : 269512
        },
        {
            "buffer" : 0,
            "byteLength" : 160,
            "byteOffset" : 269752
        },
        {
            "buffer" : 0,
            "byteLength" : 60,
            "byteOffset" : 269912
        }
    ],
    "buffers" : [
        {
            "byteLength" : 269972,
            "uri" : "data:application/octet-stream;base64,"
        }
    ]
}
