{
    "asset" : {
        "generator" : "Khronos glTF Blender I/O v1.1.46",
        "version" : "2.0"
    },
    "scene" : 0,
    "scenes" : [
        {
            "name" : "Scene",
            "nodes" : [
                0,
                1,
                2
            ]
        }
    ],
    "nodes" : [
        {
            "mesh" : 0,
            "name" : "krampus.003",
            "rotation" : [
                0,
                0,
                -0.7071067690849304,
                0.7071067690849304
            ],
            "scale" : [
                0,
                0,
                0
            ],
            "translation" : [
                0,
                0.2036151885986328,
                0
            ]
        },
        {
            "mesh" : 1,
            "name" : "krampus.004",
            "scale" : [
                0,
                0,
                0
            ],
            "translation" : [
                0,
                0.2036151885986328,
                0
            ]
        },
        {
            "mesh" : 2,
            "name" : "krampus.005",
            "scale" : [
                0,
                0,
                0
            ],
            "translation" : [
                0,
                0.24277308583259583,
                0
            ]
        }
    ],
    "animations" : [
        {
            "channels" : [
                {
                    "sampler" : 0,
                    "target" : {
                        "node" : 0,
                        "path" : "rotation"
                    }
                },
                {
                    "sampler" : 1,
                    "target" : {
                        "node" : 0,
                        "path" : "scale"
                    }
                }
            ],
            "name" : "repair0",
            "samplers" : [
                {
                    "input" : 16,
                    "interpolation" : "LINEAR",
                    "output" : 17
                },
                {
                    "input" : 18,
                    "interpolation" : "LINEAR",
                    "output" : 19
                }
            ]
        },
        {
            "channels" : [
                {
                    "sampler" : 0,
                    "target" : {
                        "node" : 1,
                        "path" : "rotation"
                    }
                },
                {
                    "sampler" : 1,
                    "target" : {
                        "node" : 1,
                        "path" : "scale"
                    }
                }
            ],
            "name" : "repair1",
            "samplers" : [
                {
                    "input" : 16,
                    "interpolation" : "LINEAR",
                    "output" : 20
                },
                {
                    "input" : 18,
                    "interpolation" : "LINEAR",
                    "output" : 21
                }
            ]
        },
        {
            "channels" : [
                {
                    "sampler" : 0,
                    "target" : {
                        "node" : 2,
                        "path" : "rotation"
                    }
                },
                {
                    "sampler" : 1,
                    "target" : {
                        "node" : 2,
                        "path" : "scale"
                    }
                }
            ],
            "name" : "repair2",
            "samplers" : [
                {
                    "input" : 16,
                    "interpolation" : "LINEAR",
                    "output" : 22
                },
                {
                    "input" : 18,
                    "interpolation" : "LINEAR",
                    "output" : 23
                }
            ]
        }
    ],
    "materials" : [
        {
            "doubleSided" : true,
            "emissiveFactor" : [
                0.799102783203125,
                0.02955683320760727,
                0.011612245813012123
            ],
            "name" : "red_shine",
            "pbrMetallicRoughness" : {
                "baseColorFactor" : [
                    0.8000000715255737,
                    0.02907697670161724,
                    0.011505916714668274,
                    1
                ],
                "metallicFactor" : 0,
                "roughnessFactor" : 0.5
            }
        },
        {
            "doubleSided" : true,
            "emissiveFactor" : [
                0.799102783203125,
                0.3323978781700134,
                0.00827152281999588
            ],
            "name" : "red_shine2",
            "pbrMetallicRoughness" : {
                "baseColorFactor" : [
                    0.799102783203125,
                    0.33245155215263367,
                    0.008023192174732685,
                    1
                ],
                "metallicFactor" : 0,
                "roughnessFactor" : 0.5
            }
        }
    ],
    "meshes" : [
        {
            "name" : "Circle.006",
            "primitives" : [
                {
                    "attributes" : {
                        "POSITION" : 0,
                        "NORMAL" : 1,
                        "TEXCOORD_0" : 2
                    },
                    "indices" : 3,
                    "material" : 0
                }
            ]
        },
        {
            "name" : "Circle.007",
            "primitives" : [
                {
                    "attributes" : {
                        "POSITION" : 4,
                        "NORMAL" : 5,
                        "TEXCOORD_0" : 6
                    },
                    "indices" : 7,
                    "material" : 1
                }
            ]
        },
        {
            "name" : "Circle.008",
            "primitives" : [
                {
                    "attributes" : {
                        "POSITION" : 8,
                        "NORMAL" : 9,
                        "TEXCOORD_0" : 10
                    },
                    "indices" : 11,
                    "material" : 0
                },
                {
                    "attributes" : {
                        "POSITION" : 12,
                        "NORMAL" : 13,
                        "TEXCOORD_0" : 14
                    },
                    "indices" : 15,
                    "material" : 1
                }
            ]
        }
    ],
    "accessors" : [
        {
            "bufferView" : 0,
            "componentType" : 5126,
            "count" : 216,
            "max" : [
                1.25,
                0,
                1.25
            ],
            "min" : [
                -1.25,
                -0.07950600236654282,
                -1.25
            ],
            "type" : "VEC3"
        },
        {
            "bufferView" : 1,
            "componentType" : 5126,
            "count" : 216,
            "type" : "VEC3"
        },
        {
            "bufferView" : 2,
            "componentType" : 5126,
            "count" : 216,
            "type" : "VEC2"
        },
        {
            "bufferView" : 3,
            "componentType" : 5123,
            "count" : 384,
            "type" : "SCALAR"
        },
        {
            "bufferView" : 4,
            "componentType" : 5126,
            "count" : 224,
            "max" : [
                1.75,
                0.027588656172156334,
                1.75
            ],
            "min" : [
                -1.75,
                -0.05191734805703163,
                -1.75
            ],
            "type" : "VEC3"
        },
        {
            "bufferView" : 5,
            "componentType" : 5126,
            "count" : 224,
            "type" : "VEC3"
        },
        {
            "bufferView" : 6,
            "componentType" : 5126,
            "count" : 224,
            "type" : "VEC2"
        },
        {
            "bufferView" : 7,
            "componentType" : 5123,
            "count" : 384,
            "type" : "SCALAR"
        },
        {
            "bufferView" : 8,
            "componentType" : 5126,
            "count" : 392,
            "max" : [
                2.499999761581421,
                0,
                2.499999761581421
            ],
            "min" : [
                -2.499999761581421,
                -0.03915787488222122,
                -2.499999761581421
            ],
            "type" : "VEC3"
        },
        {
            "bufferView" : 9,
            "componentType" : 5126,
            "count" : 392,
            "type" : "VEC3"
        },
        {
            "bufferView" : 10,
            "componentType" : 5126,
            "count" : 392,
            "type" : "VEC2"
        },
        {
            "bufferView" : 11,
            "componentType" : 5123,
            "count" : 678,
            "type" : "SCALAR"
        },
        {
            "bufferView" : 12,
            "componentType" : 5126,
            "count" : 236,
            "max" : [
                2.499999761581421,
                0,
                2.499999761581421
            ],
            "min" : [
                -2.499999761581421,
                -0.03915787488222122,
                -2.499999761581421
            ],
            "type" : "VEC3"
        },
        {
            "bufferView" : 13,
            "componentType" : 5126,
            "count" : 236,
            "type" : "VEC3"
        },
        {
            "bufferView" : 14,
            "componentType" : 5126,
            "count" : 236,
            "type" : "VEC2"
        },
        {
            "bufferView" : 15,
            "componentType" : 5123,
            "count" : 378,
            "type" : "SCALAR"
        },
        {
            "bufferView" : 16,
            "componentType" : 5126,
            "count" : 80,
            "max" : [
                3.3333333333333335
            ],
            "min" : [
                0.041666666666666664
            ],
            "type" : "SCALAR"
        },
        {
            "bufferView" : 17,
            "componentType" : 5126,
            "count" : 80,
            "type" : "VEC4"
        },
        {
            "bufferView" : 18,
            "componentType" : 5126,
            "count" : 81,
            "max" : [
                3.3333333333333335
            ],
            "min" : [
                0
            ],
            "type" : "SCALAR"
        },
        {
            "bufferView" : 19,
            "componentType" : 5126,
            "count" : 81,
            "type" : "VEC3"
        },
        {
            "bufferView" : 20,
            "componentType" : 5126,
            "count" : 80,
            "type" : "VEC4"
        },
        {
            "bufferView" : 21,
            "componentType" : 5126,
            "count" : 81,
            "type" : "VEC3"
        },
        {
            "bufferView" : 22,
            "componentType" : 5126,
            "count" : 80,
            "type" : "VEC4"
        },
        {
            "bufferView" : 23,
            "componentType" : 5126,
            "count" : 81,
            "type" : "VEC3"
        }
    ],
    "bufferViews" : [
        {
            "buffer" : 0,
            "byteLength" : 2592,
            "byteOffset" : 0
        },
        {
            "buffer" : 0,
            "byteLength" : 2592,
            "byteOffset" : 2592
        },
        {
            "buffer" : 0,
            "byteLength" : 1728,
            "byteOffset" : 5184
        },
        {
            "buffer" : 0,
            "byteLength" : 768,
            "byteOffset" : 6912
        },
        {
            "buffer" : 0,
            "byteLength" : 2688,
            "byteOffset" : 7680
        },
        {
            "buffer" : 0,
            "byteLength" : 2688,
            "byteOffset" : 10368
        },
        {
            "buffer" : 0,
            "byteLength" : 1792,
            "byteOffset" : 13056
        },
        {
            "buffer" : 0,
            "byteLength" : 768,
            "byteOffset" : 14848
        },
        {
            "buffer" : 0,
            "byteLength" : 4704,
            "byteOffset" : 15616
        },
        {
            "buffer" : 0,
            "byteLength" : 4704,
            "byteOffset" : 20320
        },
        {
            "buffer" : 0,
            "byteLength" : 3136,
            "byteOffset" : 25024
        },
        {
            "buffer" : 0,
            "byteLength" : 1356,
            "byteOffset" : 28160
        },
        {
            "buffer" : 0,
            "byteLength" : 2832,
            "byteOffset" : 29516
        },
        {
            "buffer" : 0,
            "byteLength" : 2832,
            "byteOffset" : 32348
        },
        {
            "buffer" : 0,
            "byteLength" : 1888,
            "byteOffset" : 35180
        },
        {
            "buffer" : 0,
            "byteLength" : 756,
            "byteOffset" : 37068
        },
        {
            "buffer" : 0,
            "byteLength" : 320,
            "byteOffset" : 37824
        },
        {
            "buffer" : 0,
            "byteLength" : 1280,
            "byteOffset" : 38144
        },
        {
            "buffer" : 0,
            "byteLength" : 324,
            "byteOffset" : 39424
        },
        {
            "buffer" : 0,
            "byteLength" : 972,
            "byteOffset" : 39748
        },
        {
            "buffer" : 0,
            "byteLength" : 1280,
            "byteOffset" : 40720
        },
        {
            "buffer" : 0,
            "byteLength" : 972,
            "byteOffset" : 42000
        },
        {
            "buffer" : 0,
            "byteLength" : 1280,
            "byteOffset" : 42972
        },
        {
            "buffer" : 0,
            "byteLength" : 972,
            "byteOffset" : 44252
        }
    ],
    "buffers" : [
        {
            "byteLength" : 45224,
            "uri" : "data:application/octet-stream;base64,"
        }
    ]
}
